solid wedge1
 facet normal 0 1 0
  outer loop
   vertex -4.44089e-18 0 0.0045
   vertex 0 0 0.0225
   vertex 0.0063542 0 0.0045
  endloop
 endfacet
 facet normal 0 1 -0
  outer loop
   vertex 0.0063542 0 0.0045
   vertex 0 0 0.0225
   vertex 0.04 0 0.0225
  endloop
 endfacet
 facet normal -0 1 0
  outer loop
   vertex 0.0063542 0 0.0045
   vertex 0.04 0 0.0225
   vertex 0.04 0 0
  endloop
 endfacet
 facet normal 0 1 0
  outer loop
   vertex 0.04 0 0
   vertex 0.0063542 0 0
   vertex 0.0063542 0 0.0045
  endloop
 endfacet
endsolid wedge1
