solid exported
 facet normal 0.00610823 0.999876 -0.0144908
  outer loop
   vertex 0.00466753 -0.00449885 -2.14664e-21
   vertex 0.00476833 -0.00449892 3.77519e-05
   vertex 0.00485533 -0.0045 5.13994e-18
  endloop
 endfacet
 facet normal 0.00889279 0.999928 -0.00807513
  outer loop
   vertex 0.00485533 -0.0045 5.13994e-18
   vertex 0.00476833 -0.00449892 3.77519e-05
   vertex 0.00478093 -0.00449903 3.77519e-05
  endloop
 endfacet
 facet normal 0.0109235 0.999932 -0.00407311
  outer loop
   vertex 0.00485533 -0.0045 5.13994e-18
   vertex 0.00478093 -0.00449903 3.77519e-05
   vertex 0.00481873 -0.00449945 3.7752e-05
  endloop
 endfacet
 facet normal 0.0109233 0.999913 -0.00744396
  outer loop
   vertex 0.00481873 -0.00449945 3.7752e-05
   vertex 0.00478093 -0.00449903 3.77519e-05
   vertex 0.00481873 -0.00449917 7.55423e-05
  endloop
 endfacet
 facet normal 0.0126777 0.999892 -0.0074438
  outer loop
   vertex 0.00481873 -0.00449945 3.7752e-05
   vertex 0.00481873 -0.00449917 7.55423e-05
   vertex 0.00483763 -0.00449942 7.30794e-05
  endloop
 endfacet
 facet normal 0.0123404 0.999874 -0.01003
  outer loop
   vertex 0.00483763 -0.00449942 7.30794e-05
   vertex 0.00481873 -0.00449917 7.55423e-05
   vertex 0.00481873 -0.00449904 8.8139e-05
  endloop
 endfacet
 facet normal 0.0115995 0.999873 -0.0109599
  outer loop
   vertex 0.00483763 -0.00449942 7.30794e-05
   vertex 0.00481873 -0.00449904 8.8139e-05
   vertex 0.00481873 -0.00449892 9.90145e-05
  endloop
 endfacet
 facet normal 0.010986 0.99988 -0.01096
  outer loop
   vertex 0.00481873 -0.00449892 9.90145e-05
   vertex 0.00481873 -0.00449904 8.8139e-05
   vertex 0.00478093 -0.00449862 8.8139e-05
  endloop
 endfacet
 facet normal 0.0113457 0.999861 -0.0122106
  outer loop
   vertex 0.00481873 -0.00449892 9.90145e-05
   vertex 0.00478093 -0.00449862 8.8139e-05
   vertex 0.00480296 -0.00449857 0.000113333
  endloop
 endfacet
 facet normal 0.0104319 0.99988 -0.0114116
  outer loop
   vertex 0.00480296 -0.00449857 0.000113333
   vertex 0.00478093 -0.00449862 8.8139e-05
   vertex 0.00478093 -0.00449834 0.000113333
  endloop
 endfacet
 facet normal 0.0104318 0.99987 -0.0122631
  outer loop
   vertex 0.00480296 -0.00449857 0.000113333
   vertex 0.00478093 -0.00449834 0.000113333
   vertex 0.00478093 -0.00449826 0.000119631
  endloop
 endfacet
 facet normal 0.00885458 0.999886 -0.0122633
  outer loop
   vertex 0.00478093 -0.00449826 0.000119631
   vertex 0.00478093 -0.00449834 0.000113333
   vertex 0.00476833 -0.00449822 0.000113333
  endloop
 endfacet
 facet normal 0.00881674 0.999887 -0.0121876
  outer loop
   vertex 0.00478093 -0.00449826 0.000119631
   vertex 0.00476833 -0.00449822 0.000113333
   vertex 0.00476833 -0.00449815 0.000119631
  endloop
 endfacet
 facet normal 0.00675457 0.999903 -0.0121878
  outer loop
   vertex 0.00476833 -0.00449815 0.000119631
   vertex 0.00476833 -0.00449822 0.000113333
   vertex 0.00474313 -0.00449805 0.000113333
  endloop
 endfacet
 facet normal 0.00675457 0.999903 -0.0121878
  outer loop
   vertex 0.00476833 -0.00449815 0.000119631
   vertex 0.00474313 -0.00449805 0.000113333
   vertex 0.00474313 -0.00449798 0.000119631
  endloop
 endfacet
 facet normal 0.00438958 0.999916 -0.0121879
  outer loop
   vertex 0.00474313 -0.00449798 0.000119631
   vertex 0.00474313 -0.00449805 0.000113333
   vertex 0.00473053 -0.004498 0.000113333
  endloop
 endfacet
 facet normal 0.00435175 0.999917 -0.0121123
  outer loop
   vertex 0.00474313 -0.00449798 0.000119631
   vertex 0.00473053 -0.004498 0.000113333
   vertex 0.00473053 -0.00449792 0.000119631
  endloop
 endfacet
 facet normal -0.000877918 0.999926 -0.0121124
  outer loop
   vertex 0.00473053 -0.00449792 0.000119631
   vertex 0.00473053 -0.004498 0.000113333
   vertex 0.00466753 -0.00449805 0.000113333
  endloop
 endfacet
 facet normal -0.000870351 0.999925 -0.0121881
  outer loop
   vertex 0.00473053 -0.00449792 0.000119631
   vertex 0.00466753 -0.00449805 0.000113333
   vertex 0.00466753 -0.00449798 0.000119631
  endloop
 endfacet
 facet normal -0.00675457 0.999903 -0.0121878
  outer loop
   vertex 0.00466753 -0.00449798 0.000119631
   vertex 0.00466753 -0.00449805 0.000113333
   vertex 0.00464233 -0.00449822 0.000113333
  endloop
 endfacet
 facet normal -0.00675457 0.999903 -0.0121878
  outer loop
   vertex 0.00466753 -0.00449798 0.000119631
   vertex 0.00464233 -0.00449822 0.000113333
   vertex 0.00464233 -0.00449815 0.000119631
  endloop
 endfacet
 facet normal -0.00885459 0.999887 -0.0121876
  outer loop
   vertex 0.00464233 -0.00449815 0.000119631
   vertex 0.00464233 -0.00449822 0.000113333
   vertex 0.00462973 -0.00449834 0.000113333
  endloop
 endfacet
 facet normal -0.00881674 0.999886 -0.0122633
  outer loop
   vertex 0.00464233 -0.00449815 0.000119631
   vertex 0.00462973 -0.00449834 0.000113333
   vertex 0.00462973 -0.00449826 0.000119631
  endloop
 endfacet
 facet normal -0.0100275 0.999875 -0.0122631
  outer loop
   vertex 0.00462973 -0.00449826 0.000119631
   vertex 0.00462973 -0.00449834 0.000113333
   vertex 0.00461713 -0.00449846 0.000113333
  endloop
 endfacet
 facet normal -0.00995181 0.999873 -0.0124145
  outer loop
   vertex 0.00462973 -0.00449826 0.000119631
   vertex 0.00461713 -0.00449846 0.000113333
   vertex 0.00462973 -0.00449818 0.000125929
  endloop
 endfacet
 facet normal -0.0109726 0.999875 -0.0113935
  outer loop
   vertex 0.00462973 -0.00449818 0.000125929
   vertex 0.00461713 -0.00449846 0.000113333
   vertex 0.00460771 -0.00449857 0.000113333
  endloop
 endfacet
 facet normal -0.0375303 0.998679 0.0350866
  outer loop
   vertex 0.00462973 -0.00449818 0.000125929
   vertex 0.00460771 -0.00449857 0.000113333
   vertex 0.00464023 -0.00449801 0.000132228
  endloop
 endfacet
 facet normal -0.0102246 0.999933 -0.00551635
  outer loop
   vertex 0.00455533 -0.0045 8.05428e-18
   vertex 0.00461713 -0.00449916 3.77519e-05
   vertex 0.00466753 -0.00449885 -2.14664e-21
  endloop
 endfacet
 facet normal -0.0100281 0.999936 -0.00525408
  outer loop
   vertex 0.00466753 -0.00449885 -2.14664e-21
   vertex 0.00461713 -0.00449916 3.77519e-05
   vertex 0.00462973 -0.00449903 3.77519e-05
  endloop
 endfacet
 facet normal -0.008893 0.999952 -0.00411744
  outer loop
   vertex 0.00466753 -0.00449885 -2.14664e-21
   vertex 0.00462973 -0.00449903 3.77519e-05
   vertex 0.00464233 -0.00449892 3.77519e-05
  endloop
 endfacet
 facet normal -0.00889283 0.999932 -0.00749457
  outer loop
   vertex 0.00464233 -0.00449892 3.77519e-05
   vertex 0.00462973 -0.00449903 3.77519e-05
   vertex 0.00464233 -0.00449864 7.55422e-05
  endloop
 endfacet
 facet normal -0.00679272 0.999949 -0.00749469
  outer loop
   vertex 0.00464233 -0.00449892 3.77519e-05
   vertex 0.00464233 -0.00449864 7.55422e-05
   vertex 0.00466753 -0.00449847 7.55422e-05
  endloop
 endfacet
 facet normal -0.00679257 0.999927 -0.0100306
  outer loop
   vertex 0.00466753 -0.00449847 7.55422e-05
   vertex 0.00464233 -0.00449864 7.55422e-05
   vertex 0.00466753 -0.00449834 8.8139e-05
  endloop
 endfacet
 facet normal -0.00087794 0.999949 -0.0100308
  outer loop
   vertex 0.00466753 -0.00449847 7.55422e-05
   vertex 0.00466753 -0.00449834 8.8139e-05
   vertex 0.00473053 -0.00449829 8.8139e-05
  endloop
 endfacet
 facet normal -0.000877927 0.999935 -0.0113744
  outer loop
   vertex 0.00473053 -0.00449829 8.8139e-05
   vertex 0.00466753 -0.00449834 8.8139e-05
   vertex 0.00473053 -0.004498 0.000113333
  endloop
 endfacet
 facet normal 0.00438962 0.999926 -0.0113743
  outer loop
   vertex 0.00473053 -0.00449829 8.8139e-05
   vertex 0.00473053 -0.004498 0.000113333
   vertex 0.00474313 -0.00449805 0.000113333
  endloop
 endfacet
 facet normal -0.0126036 0.999917 -0.00257795
  outer loop
   vertex 0.00455953 -0.00449985 3.7752e-05
   vertex 0.00457303 -0.00449968 3.7752e-05
   vertex 0.00455533 -0.0045 8.05428e-18
  endloop
 endfacet
 facet normal -0.0123363 0.99992 -0.00270329
  outer loop
   vertex 0.00455533 -0.0045 8.05428e-18
   vertex 0.00457303 -0.00449968 3.7752e-05
   vertex 0.00459193 -0.00449945 3.7752e-05
  endloop
 endfacet
 facet normal -0.0113714 0.999929 -0.00363883
  outer loop
   vertex 0.00455533 -0.0045 8.05428e-18
   vertex 0.00459193 -0.00449945 3.7752e-05
   vertex 0.00461713 -0.00449916 3.77519e-05
  endloop
 endfacet
 facet normal -0.0113712 0.999907 -0.00748177
  outer loop
   vertex 0.00461713 -0.00449916 3.77519e-05
   vertex 0.00459193 -0.00449945 3.7752e-05
   vertex 0.00461713 -0.00449888 7.55422e-05
  endloop
 endfacet
 facet normal -0.0100658 0.999921 -0.00748187
  outer loop
   vertex 0.00461713 -0.00449916 3.77519e-05
   vertex 0.00461713 -0.00449888 7.55422e-05
   vertex 0.00462973 -0.00449875 7.55422e-05
  endloop
 endfacet
 facet normal -0.0100656 0.999899 -0.0100681
  outer loop
   vertex 0.00462973 -0.00449875 7.55422e-05
   vertex 0.00461713 -0.00449888 7.55422e-05
   vertex 0.00462973 -0.00449862 8.8139e-05
  endloop
 endfacet
 facet normal -0.00889263 0.99991 -0.0100682
  outer loop
   vertex 0.00462973 -0.00449875 7.55422e-05
   vertex 0.00462973 -0.00449862 8.8139e-05
   vertex 0.00464233 -0.00449851 8.8139e-05
  endloop
 endfacet
 facet normal -0.00889251 0.999896 -0.0113928
  outer loop
   vertex 0.00464233 -0.00449851 8.8139e-05
   vertex 0.00462973 -0.00449862 8.8139e-05
   vertex 0.00464233 -0.00449822 0.000113333
  endloop
 endfacet
 facet normal -0.00675463 0.999912 -0.011393
  outer loop
   vertex 0.00464233 -0.00449851 8.8139e-05
   vertex 0.00464233 -0.00449822 0.000113333
   vertex 0.00466753 -0.00449805 0.000113333
  endloop
 endfacet
 facet normal -0.0126033 0.999901 -0.0062911
  outer loop
   vertex 0.00455953 -0.00449985 3.7752e-05
   vertex 0.00456522 -0.00449966 5.62937e-05
   vertex 0.00457303 -0.00449968 3.7752e-05
  endloop
 endfacet
 facet normal -0.0149032 0.999863 -0.00726074
  outer loop
   vertex 0.00457303 -0.00449968 3.7752e-05
   vertex 0.00456522 -0.00449966 5.62937e-05
   vertex 0.00457303 -0.00449942 7.30794e-05
  endloop
 endfacet
 facet normal -0.012336 0.999898 -0.007261
  outer loop
   vertex 0.00457303 -0.00449968 3.7752e-05
   vertex 0.00457303 -0.00449942 7.30794e-05
   vertex 0.00459193 -0.00449945 3.7752e-05
  endloop
 endfacet
 facet normal -0.0126777 0.999892 -0.0074438
  outer loop
   vertex 0.00459193 -0.00449945 3.7752e-05
   vertex 0.00457303 -0.00449942 7.30794e-05
   vertex 0.00459193 -0.00449917 7.55423e-05
  endloop
 endfacet
 facet normal -0.0114279 0.999907 -0.00744391
  outer loop
   vertex 0.00459193 -0.00449945 3.7752e-05
   vertex 0.00459193 -0.00449917 7.55423e-05
   vertex 0.00461713 -0.00449888 7.55422e-05
  endloop
 endfacet
 facet normal -0.0114277 0.999884 -0.010068
  outer loop
   vertex 0.00461713 -0.00449888 7.55422e-05
   vertex 0.00459193 -0.00449917 7.55423e-05
   vertex 0.00461713 -0.00449875 8.8139e-05
  endloop
 endfacet
 facet normal -0.0100656 0.999899 -0.0100681
  outer loop
   vertex 0.00461713 -0.00449888 7.55422e-05
   vertex 0.00461713 -0.00449875 8.8139e-05
   vertex 0.00462973 -0.00449862 8.8139e-05
  endloop
 endfacet
 facet normal -0.0100654 0.999884 -0.0114116
  outer loop
   vertex 0.00462973 -0.00449862 8.8139e-05
   vertex 0.00461713 -0.00449875 8.8139e-05
   vertex 0.00462973 -0.00449834 0.000113333
  endloop
 endfacet
 facet normal -0.00885467 0.999896 -0.0114118
  outer loop
   vertex 0.00462973 -0.00449862 8.8139e-05
   vertex 0.00462973 -0.00449834 0.000113333
   vertex 0.00464233 -0.00449822 0.000113333
  endloop
 endfacet
 facet normal -0.0123404 0.999874 -0.01003
  outer loop
   vertex 0.00459193 -0.00449917 7.55423e-05
   vertex 0.00457303 -0.00449942 7.30794e-05
   vertex 0.00459193 -0.00449904 8.8139e-05
  endloop
 endfacet
 facet normal -0.0115995 0.999873 -0.0109599
  outer loop
   vertex 0.00459193 -0.00449904 8.8139e-05
   vertex 0.00457303 -0.00449942 7.30794e-05
   vertex 0.00459193 -0.00449892 9.90145e-05
  endloop
 endfacet
 facet normal -0.0114465 0.999874 -0.01096
  outer loop
   vertex 0.00459193 -0.00449904 8.8139e-05
   vertex 0.00459193 -0.00449892 9.90145e-05
   vertex 0.00461713 -0.00449875 8.8139e-05
  endloop
 endfacet
 facet normal -0.0117798 0.999862 -0.0117324
  outer loop
   vertex 0.00461713 -0.00449875 8.8139e-05
   vertex 0.00459193 -0.00449892 9.90145e-05
   vertex 0.00460771 -0.00449857 0.000113333
  endloop
 endfacet
 facet normal -0.0109726 0.999874 -0.0114305
  outer loop
   vertex 0.00461713 -0.00449875 8.8139e-05
   vertex 0.00460771 -0.00449857 0.000113333
   vertex 0.00461713 -0.00449846 0.000113333
  endloop
 endfacet
 facet normal -0.00815161 0.999931 -0.00842087
  outer loop
   vertex 0.00466753 -0.00449771 0.000140957
   vertex 0.00464233 -0.00449799 0.000132228
   vertex 0.00464023 -0.00449801 0.000132228
  endloop
 endfacet
 facet normal -0.00815126 0.999888 -0.0125661
  outer loop
   vertex 0.00464023 -0.00449801 0.000132228
   vertex 0.00464233 -0.00449799 0.000132228
   vertex 0.00464233 -0.00449807 0.000125929
  endloop
 endfacet
 facet normal -0.00881668 0.999879 -0.0127885
  outer loop
   vertex 0.00464023 -0.00449801 0.000132228
   vertex 0.00464233 -0.00449807 0.000125929
   vertex 0.00462973 -0.00449818 0.000125929
  endloop
 endfacet
 facet normal -0.00881672 0.999884 -0.0124147
  outer loop
   vertex 0.00462973 -0.00449818 0.000125929
   vertex 0.00464233 -0.00449807 0.000125929
   vertex 0.00462973 -0.00449826 0.000119631
  endloop
 endfacet
 facet normal -0.00672047 0.999899 -0.0125511
  outer loop
   vertex 0.00464233 -0.00449799 0.000132228
   vertex 0.00466753 -0.00449771 0.000140957
   vertex 0.00466753 -0.00449774 0.000138526
  endloop
 endfacet
 facet normal -0.00259929 0.999918 -0.0125514
  outer loop
   vertex 0.00466753 -0.00449774 0.000138526
   vertex 0.00466753 -0.00449771 0.000140957
   vertex 0.00470533 -0.00449756 0.000145133
  endloop
 endfacet
 facet normal -0.00259665 0.999918 -0.0125665
  outer loop
   vertex 0.00466753 -0.00449774 0.000138526
   vertex 0.00470533 -0.00449756 0.000145133
   vertex 0.00466753 -0.00449782 0.000132228
  endloop
 endfacet
 facet normal -0.0026225 0.999919 -0.0124908
  outer loop
   vertex 0.00466753 -0.00449782 0.000132228
   vertex 0.00470533 -0.00449756 0.000145133
   vertex 0.00466753 -0.0044979 0.000125929
  endloop
 endfacet
 facet normal -0.00673562 0.999899 -0.0124906
  outer loop
   vertex 0.00466753 -0.00449782 0.000132228
   vertex 0.00466753 -0.0044979 0.000125929
   vertex 0.00464233 -0.00449807 0.000125929
  endloop
 endfacet
 facet normal -0.00673563 0.9999 -0.0124149
  outer loop
   vertex 0.00464233 -0.00449807 0.000125929
   vertex 0.00466753 -0.0044979 0.000125929
   vertex 0.00464233 -0.00449815 0.000119631
  endloop
 endfacet
 facet normal -0.00881672 0.999884 -0.0124147
  outer loop
   vertex 0.00464233 -0.00449807 0.000125929
   vertex 0.00464233 -0.00449815 0.000119631
   vertex 0.00462973 -0.00449826 0.000119631
  endloop
 endfacet
 facet normal 0.00322376 0.999971 -0.00690108
  outer loop
   vertex 0.00474313 -0.00449771 0.000140957
   vertex 0.00473053 -0.00449769 0.000138526
   vertex 0.00470533 -0.00449756 0.000145133
  endloop
 endfacet
 facet normal 0.00173808 0.99992 -0.0125665
  outer loop
   vertex 0.00470533 -0.00449756 0.000145133
   vertex 0.00473053 -0.00449769 0.000138526
   vertex 0.00473053 -0.00449777 0.000132228
  endloop
 endfacet
 facet normal 0.00181562 0.999921 -0.0124151
  outer loop
   vertex 0.00470533 -0.00449756 0.000145133
   vertex 0.00473053 -0.00449777 0.000132228
   vertex 0.00473053 -0.00449784 0.000125929
  endloop
 endfacet
 facet normal 0.00431389 0.999914 -0.012415
  outer loop
   vertex 0.00473053 -0.00449784 0.000125929
   vertex 0.00473053 -0.00449777 0.000132228
   vertex 0.00474313 -0.00449782 0.000132228
  endloop
 endfacet
 facet normal 0.00435172 0.999913 -0.0124907
  outer loop
   vertex 0.00473053 -0.00449784 0.000125929
   vertex 0.00474313 -0.00449782 0.000132228
   vertex 0.00474313 -0.0044979 0.000125929
  endloop
 endfacet
 facet normal 0.00673562 0.999899 -0.0124906
  outer loop
   vertex 0.00474313 -0.0044979 0.000125929
   vertex 0.00474313 -0.00449782 0.000132228
   vertex 0.00476833 -0.00449807 0.000125929
  endloop
 endfacet
 facet normal 0.00673563 0.999901 -0.0123392
  outer loop
   vertex 0.00474313 -0.0044979 0.000125929
   vertex 0.00476833 -0.00449807 0.000125929
   vertex 0.00474313 -0.00449798 0.000119631
  endloop
 endfacet
 facet normal 0.00675455 0.9999 -0.0124149
  outer loop
   vertex 0.00474313 -0.00449798 0.000119631
   vertex 0.00476833 -0.00449807 0.000125929
   vertex 0.00476833 -0.00449815 0.000119631
  endloop
 endfacet
 facet normal 0.00847813 0.999918 -0.00961057
  outer loop
   vertex 0.00478093 -0.00449816 0.000127321
   vertex 0.00476833 -0.00449807 0.000125929
   vertex 0.00474313 -0.00449771 0.000140957
  endloop
 endfacet
 facet normal 0.00672425 0.999899 -0.0125511
  outer loop
   vertex 0.00474313 -0.00449771 0.000140957
   vertex 0.00476833 -0.00449807 0.000125929
   vertex 0.00474313 -0.00449774 0.000138526
  endloop
 endfacet
 facet normal 0.00431388 0.999912 -0.0125513
  outer loop
   vertex 0.00474313 -0.00449771 0.000140957
   vertex 0.00474313 -0.00449774 0.000138526
   vertex 0.00473053 -0.00449769 0.000138526
  endloop
 endfacet
 facet normal 0.00431388 0.999912 -0.0125664
  outer loop
   vertex 0.00473053 -0.00449769 0.000138526
   vertex 0.00474313 -0.00449774 0.000138526
   vertex 0.00473053 -0.00449777 0.000132228
  endloop
 endfacet
 facet normal 0.00881669 0.999881 -0.0126791
  outer loop
   vertex 0.00476833 -0.00449807 0.000125929
   vertex 0.00478093 -0.00449816 0.000127321
   vertex 0.00478093 -0.00449818 0.000125929
  endloop
 endfacet
 facet normal 0.0102372 0.999867 -0.0126789
  outer loop
   vertex 0.00478093 -0.00449818 0.000125929
   vertex 0.00478093 -0.00449816 0.000127321
   vertex 0.00480296 -0.00449857 0.000113333
  endloop
 endfacet
 facet normal 0.0103885 0.999869 -0.0124145
  outer loop
   vertex 0.00478093 -0.00449818 0.000125929
   vertex 0.00480296 -0.00449857 0.000113333
   vertex 0.00478093 -0.00449826 0.000119631
  endloop
 endfacet
 facet normal 0.012336 0.999898 -0.007261
  outer loop
   vertex 0.00481873 -0.00449945 3.7752e-05
   vertex 0.00483763 -0.00449942 7.30794e-05
   vertex 0.00483763 -0.00449968 3.7752e-05
  endloop
 endfacet
 facet normal 0.0149032 0.999863 -0.00726074
  outer loop
   vertex 0.00483763 -0.00449968 3.7752e-05
   vertex 0.00483763 -0.00449942 7.30794e-05
   vertex 0.00484545 -0.00449966 5.62937e-05
  endloop
 endfacet
 facet normal 0.0126033 0.999901 -0.0062911
  outer loop
   vertex 0.00483763 -0.00449968 3.7752e-05
   vertex 0.00484545 -0.00449966 5.62937e-05
   vertex 0.00485114 -0.00449985 3.7752e-05
  endloop
 endfacet
 facet normal 0.0126036 0.999917 -0.00257795
  outer loop
   vertex 0.00485114 -0.00449985 3.7752e-05
   vertex 0.00485533 -0.0045 5.13994e-18
   vertex 0.00483763 -0.00449968 3.7752e-05
  endloop
 endfacet
 facet normal 0.0123363 0.99992 -0.00270329
  outer loop
   vertex 0.00483763 -0.00449968 3.7752e-05
   vertex 0.00485533 -0.0045 5.13994e-18
   vertex 0.00481873 -0.00449945 3.7752e-05
  endloop
 endfacet
 facet normal -0.0100276 0.999884 -0.0114306
  outer loop
   vertex 0.00462973 -0.00449834 0.000113333
   vertex 0.00461713 -0.00449875 8.8139e-05
   vertex 0.00461713 -0.00449846 0.000113333
  endloop
 endfacet
 facet normal -0.0067167 0.999898 -0.0125662
  outer loop
   vertex 0.00466753 -0.00449782 0.000132228
   vertex 0.00464233 -0.00449807 0.000125929
   vertex 0.00464233 -0.00449799 0.000132228
  endloop
 endfacet
 facet normal -0.00889283 0.999932 -0.00749457
  outer loop
   vertex 0.00464233 -0.00449864 7.55422e-05
   vertex 0.00462973 -0.00449903 3.77519e-05
   vertex 0.00462973 -0.00449875 7.55422e-05
  endloop
 endfacet
 facet normal -0.010028 0.999922 -0.00749449
  outer loop
   vertex 0.00462973 -0.00449875 7.55422e-05
   vertex 0.00462973 -0.00449903 3.77519e-05
   vertex 0.00461713 -0.00449916 3.77519e-05
  endloop
 endfacet
 facet normal -0.00679289 0.999973 -0.00271555
  outer loop
   vertex 0.00464233 -0.00449892 3.77519e-05
   vertex 0.00466753 -0.00449875 3.77519e-05
   vertex 0.00466753 -0.00449885 -2.14664e-21
  endloop
 endfacet
 facet normal -0.000885548 0.999996 -0.00271561
  outer loop
   vertex 0.00466753 -0.00449885 -2.14664e-21
   vertex 0.00466753 -0.00449875 3.77519e-05
   vertex 0.00473053 -0.00449869 3.77519e-05
  endloop
 endfacet
 facet normal 0.00442745 0.999923 -0.0115816
  outer loop
   vertex 0.00466753 -0.00449885 -2.14664e-21
   vertex 0.00473053 -0.00449869 3.77519e-05
   vertex 0.00474313 -0.00449875 3.77519e-05
  endloop
 endfacet
 facet normal 0.00442763 0.999962 -0.00749479
  outer loop
   vertex 0.00474313 -0.00449875 3.77519e-05
   vertex 0.00473053 -0.00449869 3.77519e-05
   vertex 0.00474313 -0.00449847 7.55422e-05
  endloop
 endfacet
 facet normal 0.00679272 0.999949 -0.00749469
  outer loop
   vertex 0.00474313 -0.00449875 3.77519e-05
   vertex 0.00474313 -0.00449847 7.55422e-05
   vertex 0.00476833 -0.00449864 7.55422e-05
  endloop
 endfacet
 facet normal 0.00679257 0.999926 -0.0100684
  outer loop
   vertex 0.00476833 -0.00449864 7.55422e-05
   vertex 0.00474313 -0.00449847 7.55422e-05
   vertex 0.00476833 -0.00449851 8.8139e-05
  endloop
 endfacet
 facet normal 0.00889263 0.99991 -0.0100682
  outer loop
   vertex 0.00476833 -0.00449864 7.55422e-05
   vertex 0.00476833 -0.00449851 8.8139e-05
   vertex 0.00478093 -0.00449862 8.8139e-05
  endloop
 endfacet
 facet normal 0.00889251 0.999895 -0.0114118
  outer loop
   vertex 0.00478093 -0.00449862 8.8139e-05
   vertex 0.00476833 -0.00449851 8.8139e-05
   vertex 0.00478093 -0.00449834 0.000113333
  endloop
 endfacet
 facet normal -0.00679272 0.999949 -0.00749469
  outer loop
   vertex 0.00464233 -0.00449892 3.77519e-05
   vertex 0.00466753 -0.00449847 7.55422e-05
   vertex 0.00466753 -0.00449875 3.77519e-05
  endloop
 endfacet
 facet normal -0.000877958 0.999972 -0.00749486
  outer loop
   vertex 0.00466753 -0.00449875 3.77519e-05
   vertex 0.00466753 -0.00449847 7.55422e-05
   vertex 0.00473053 -0.00449841 7.55422e-05
  endloop
 endfacet
 facet normal -0.000885527 0.999972 -0.00748225
  outer loop
   vertex 0.00466753 -0.00449875 3.77519e-05
   vertex 0.00473053 -0.00449841 7.55422e-05
   vertex 0.00473053 -0.00449869 3.77519e-05
  endloop
 endfacet
 facet normal 0.00438978 0.999962 -0.00748218
  outer loop
   vertex 0.00473053 -0.00449869 3.77519e-05
   vertex 0.00473053 -0.00449841 7.55422e-05
   vertex 0.00474313 -0.00449847 7.55422e-05
  endloop
 endfacet
 facet normal 0.00679201 0.999844 -0.0163165
  outer loop
   vertex 0.00476833 -0.00449892 3.77519e-05
   vertex 0.00466753 -0.00449885 -2.14664e-21
   vertex 0.00474313 -0.00449875 3.77519e-05
  endloop
 endfacet
 facet normal 0.00679272 0.999949 -0.00749469
  outer loop
   vertex 0.00474313 -0.00449875 3.77519e-05
   vertex 0.00476833 -0.00449864 7.55422e-05
   vertex 0.00476833 -0.00449892 3.77519e-05
  endloop
 endfacet
 facet normal 0.00889283 0.999932 -0.00749457
  outer loop
   vertex 0.00476833 -0.00449892 3.77519e-05
   vertex 0.00476833 -0.00449864 7.55422e-05
   vertex 0.00478093 -0.00449875 7.55422e-05
  endloop
 endfacet
 facet normal 0.00889283 0.999932 -0.00749457
  outer loop
   vertex 0.00476833 -0.00449892 3.77519e-05
   vertex 0.00478093 -0.00449875 7.55422e-05
   vertex 0.00478093 -0.00449903 3.77519e-05
  endloop
 endfacet
 facet normal 0.0109738 0.999912 -0.00749442
  outer loop
   vertex 0.00478093 -0.00449903 3.77519e-05
   vertex 0.00478093 -0.00449875 7.55422e-05
   vertex 0.00481873 -0.00449917 7.55423e-05
  endloop
 endfacet
 facet normal -0.0114466 0.999884 -0.0100301
  outer loop
   vertex 0.00459193 -0.00449904 8.8139e-05
   vertex 0.00461713 -0.00449875 8.8139e-05
   vertex 0.00459193 -0.00449917 7.55423e-05
  endloop
 endfacet
 facet normal -0.00677365 0.999926 -0.0100684
  outer loop
   vertex 0.00466753 -0.00449834 8.8139e-05
   vertex 0.00464233 -0.00449864 7.55422e-05
   vertex 0.00464233 -0.00449851 8.8139e-05
  endloop
 endfacet
 facet normal -0.00889263 0.99991 -0.0100682
  outer loop
   vertex 0.00464233 -0.00449851 8.8139e-05
   vertex 0.00464233 -0.00449864 7.55422e-05
   vertex 0.00462973 -0.00449875 7.55422e-05
  endloop
 endfacet
 facet normal -0.000877939 0.999949 -0.0100308
  outer loop
   vertex 0.00466753 -0.00449847 7.55422e-05
   vertex 0.00473053 -0.00449829 8.8139e-05
   vertex 0.00473053 -0.00449841 7.55422e-05
  endloop
 endfacet
 facet normal 0.00438969 0.99994 -0.0100307
  outer loop
   vertex 0.00473053 -0.00449841 7.55422e-05
   vertex 0.00473053 -0.00449829 8.8139e-05
   vertex 0.00474313 -0.00449834 8.8139e-05
  endloop
 endfacet
 facet normal 0.00438969 0.99994 -0.0100307
  outer loop
   vertex 0.00473053 -0.00449841 7.55422e-05
   vertex 0.00474313 -0.00449834 8.8139e-05
   vertex 0.00474313 -0.00449847 7.55422e-05
  endloop
 endfacet
 facet normal 0.00677365 0.999927 -0.0100306
  outer loop
   vertex 0.00474313 -0.00449847 7.55422e-05
   vertex 0.00474313 -0.00449834 8.8139e-05
   vertex 0.00476833 -0.00449851 8.8139e-05
  endloop
 endfacet
 facet normal 0.0109735 0.999889 -0.0100302
  outer loop
   vertex 0.00481873 -0.00449904 8.8139e-05
   vertex 0.00481873 -0.00449917 7.55423e-05
   vertex 0.00478093 -0.00449875 7.55422e-05
  endloop
 endfacet
 facet normal 0.0109861 0.999889 -0.010068
  outer loop
   vertex 0.00481873 -0.00449904 8.8139e-05
   vertex 0.00478093 -0.00449875 7.55422e-05
   vertex 0.00478093 -0.00449862 8.8139e-05
  endloop
 endfacet
 facet normal 0.00889263 0.99991 -0.0100682
  outer loop
   vertex 0.00478093 -0.00449862 8.8139e-05
   vertex 0.00478093 -0.00449875 7.55422e-05
   vertex 0.00476833 -0.00449864 7.55422e-05
  endloop
 endfacet
 facet normal 0.00885467 0.999896 -0.0113928
  outer loop
   vertex 0.00476833 -0.00449822 0.000113333
   vertex 0.00478093 -0.00449834 0.000113333
   vertex 0.00476833 -0.00449851 8.8139e-05
  endloop
 endfacet
 facet normal 0.00675463 0.999912 -0.0113741
  outer loop
   vertex 0.00474313 -0.00449805 0.000113333
   vertex 0.00476833 -0.00449822 0.000113333
   vertex 0.00474313 -0.00449834 8.8139e-05
  endloop
 endfacet
 facet normal 0.00677355 0.999912 -0.011393
  outer loop
   vertex 0.00474313 -0.00449834 8.8139e-05
   vertex 0.00476833 -0.00449822 0.000113333
   vertex 0.00476833 -0.00449851 8.8139e-05
  endloop
 endfacet
 facet normal 0.00438963 0.999926 -0.0113743
  outer loop
   vertex 0.00474313 -0.00449834 8.8139e-05
   vertex 0.00473053 -0.00449829 8.8139e-05
   vertex 0.00474313 -0.00449805 0.000113333
  endloop
 endfacet
 facet normal -0.000877926 0.999935 -0.0113744
  outer loop
   vertex 0.00466753 -0.00449805 0.000113333
   vertex 0.00473053 -0.004498 0.000113333
   vertex 0.00466753 -0.00449834 8.8139e-05
  endloop
 endfacet
 facet normal -0.00677355 0.999912 -0.0113741
  outer loop
   vertex 0.00466753 -0.00449834 8.8139e-05
   vertex 0.00464233 -0.00449851 8.8139e-05
   vertex 0.00466753 -0.00449805 0.000113333
  endloop
 endfacet
 facet normal -0.00675456 0.999901 -0.0123392
  outer loop
   vertex 0.00464233 -0.00449815 0.000119631
   vertex 0.00466753 -0.0044979 0.000125929
   vertex 0.00466753 -0.00449798 0.000119631
  endloop
 endfacet
 facet normal -0.000870348 0.999923 -0.0123394
  outer loop
   vertex 0.00466753 -0.00449798 0.000119631
   vertex 0.00466753 -0.0044979 0.000125929
   vertex 0.00473053 -0.00449784 0.000125929
  endloop
 endfacet
 facet normal -0.000870349 0.999923 -0.0123394
  outer loop
   vertex 0.00466753 -0.00449798 0.000119631
   vertex 0.00473053 -0.00449784 0.000125929
   vertex 0.00473053 -0.00449792 0.000119631
  endloop
 endfacet
 facet normal 0.00435173 0.999914 -0.0123393
  outer loop
   vertex 0.00473053 -0.00449792 0.000119631
   vertex 0.00473053 -0.00449784 0.000125929
   vertex 0.00474313 -0.0044979 0.000125929
  endloop
 endfacet
 facet normal 0.00435174 0.999914 -0.0123393
  outer loop
   vertex 0.00473053 -0.00449792 0.000119631
   vertex 0.00474313 -0.0044979 0.000125929
   vertex 0.00474313 -0.00449798 0.000119631
  endloop
 endfacet
 facet normal 0.00881672 0.999884 -0.0124147
  outer loop
   vertex 0.00478093 -0.00449818 0.000125929
   vertex 0.00478093 -0.00449826 0.000119631
   vertex 0.00476833 -0.00449815 0.000119631
  endloop
 endfacet
 facet normal 0.00881672 0.999884 -0.0124147
  outer loop
   vertex 0.00478093 -0.00449818 0.000125929
   vertex 0.00476833 -0.00449815 0.000119631
   vertex 0.00476833 -0.00449807 0.000125929
  endloop
 endfacet
 facet normal 0.0067167 0.999898 -0.0125662
  outer loop
   vertex 0.00476833 -0.00449807 0.000125929
   vertex 0.00474313 -0.00449782 0.000132228
   vertex 0.00474313 -0.00449774 0.000138526
  endloop
 endfacet
 facet normal 0.00431388 0.999912 -0.0125664
  outer loop
   vertex 0.00474313 -0.00449774 0.000138526
   vertex 0.00474313 -0.00449782 0.000132228
   vertex 0.00473053 -0.00449777 0.000132228
  endloop
 endfacet
 facet normal -0.000870303 0.999873 -0.0159389
  outer loop
   vertex 0.00473053 -0.00449784 0.000125929
   vertex 0.00466753 -0.0044979 0.000125929
   vertex 0.00470533 -0.00449756 0.000145133
  endloop
 endfacet
 facet normal -0.0067167 0.999898 -0.0125662
  outer loop
   vertex 0.00466753 -0.00449782 0.000132228
   vertex 0.00464233 -0.00449799 0.000132228
   vertex 0.00466753 -0.00449774 0.000138526
  endloop
 endfacet
endsolid exported
