solid DocumentfromArjun
 facet normal -1 4.38176e-18 -2.02579e-19
  outer loop
   vertex 0 -0.0045 0
   vertex -1.97179e-21 -0.00495 0
   vertex 0 -0.0044808 0.000415208
  endloop
 endfacet
 facet normal -1 4.38176e-18 -2.02581e-19
  outer loop
   vertex 0 -0.0044808 0.000415208
   vertex -1.97179e-21 -0.00495 0
   vertex -1.97179e-21 -0.00492888 0.000456728
  endloop
 endfacet
 facet normal -1 4.34438e-18 -6.06013e-19
  outer loop
   vertex 0 -0.0044808 0.000415208
   vertex -1.97179e-21 -0.00492888 0.000456728
   vertex -1.97179e-21 -0.00486572 0.00090956
  endloop
 endfacet
 facet normal -1 4.34438e-18 -6.06017e-19
  outer loop
   vertex 0 -0.0044808 0.000415208
   vertex -1.97179e-21 -0.00486572 0.00090956
   vertex 0 -0.00442338 0.000826873
  endloop
 endfacet
 facet normal -1 4.26993e-18 -1.00428e-18
  outer loop
   vertex 0 -0.00442338 0.000826873
   vertex -1.97179e-21 -0.00486572 0.00090956
   vertex -1.97179e-21 -0.00476104 0.00135463
  endloop
 endfacet
 facet normal -1 4.26993e-18 -1.00428e-18
  outer loop
   vertex 0 -0.00442338 0.000826873
   vertex -1.97179e-21 -0.00476104 0.00135463
   vertex 0 -0.00432822 0.00123148
  endloop
 endfacet
 facet normal -1 4.15905e-18 -1.39397e-18
  outer loop
   vertex 0 -0.00432822 0.00123148
   vertex -1.97179e-21 -0.00476104 0.00135463
   vertex -1.97179e-21 -0.00461574 0.00178815
  endloop
 endfacet
 facet normal -1 4.15905e-18 -1.39398e-18
  outer loop
   vertex 0 -0.00432822 0.00123148
   vertex -1.97179e-21 -0.00461574 0.00178815
   vertex 0 -0.00419613 0.00162559
  endloop
 endfacet
 facet normal -1 4.01269e-18 -1.77177e-18
  outer loop
   vertex 0 -0.00419613 0.00162559
   vertex -1.97179e-21 -0.00461574 0.00178815
   vertex -1.97179e-21 -0.00443106 0.0022064
  endloop
 endfacet
 facet normal -1 4.01269e-18 -1.77177e-18
  outer loop
   vertex 0 -0.00419613 0.00162559
   vertex -1.97179e-21 -0.00443106 0.0022064
   vertex 0 -0.00402823 0.00200582
  endloop
 endfacet
 facet normal -1 3.83209e-18 -2.13446e-18
  outer loop
   vertex 0 -0.00402823 0.00200582
   vertex -1.97179e-21 -0.00443106 0.0022064
   vertex -1.97179e-21 -0.00420857 0.00260584
  endloop
 endfacet
 facet normal -1 3.83209e-18 -2.13446e-18
  outer loop
   vertex 0 -0.00402823 0.00200582
   vertex -1.97179e-21 -0.00420857 0.00260584
   vertex 0 -0.00382598 0.00236894
  endloop
 endfacet
 facet normal -1 3.6188e-18 -2.47894e-18
  outer loop
   vertex 0 -0.00382598 0.00236894
   vertex -1.97179e-21 -0.00420857 0.00260584
   vertex -1.97179e-21 -0.00395019 0.00298304
  endloop
 endfacet
 facet normal -1 3.6188e-18 -2.47894e-18
  outer loop
   vertex 0 -0.00382598 0.00236894
   vertex -1.97179e-21 -0.00395019 0.00298304
   vertex 0 -0.00359108 0.00271186
  endloop
 endfacet
 facet normal -1 3.37464e-18 -2.80227e-18
  outer loop
   vertex 0 -0.00359108 0.00271186
   vertex -1.97179e-21 -0.00395019 0.00298304
   vertex -1.97179e-21 -0.00365809 0.00333479
  endloop
 endfacet
 facet normal -1 3.37464e-18 -2.80227e-18
  outer loop
   vertex 0 -0.00359108 0.00271186
   vertex -1.97179e-21 -0.00365809 0.00333479
   vertex 0 -0.00332554 0.00303163
  endloop
 endfacet
 facet normal -1 3.10168e-18 -3.10168e-18
  outer loop
   vertex 0 -0.00332554 0.00303163
   vertex -1.97179e-21 -0.00365809 0.00333479
   vertex -1.97179e-21 -0.00333479 0.00365809
  endloop
 endfacet
 facet normal -1 3.10168e-18 -3.10168e-18
  outer loop
   vertex 0 -0.00332554 0.00303163
   vertex -1.97179e-21 -0.00333479 0.00365809
   vertex 0 -0.00303163 0.00332554
  endloop
 endfacet
 facet normal -1 2.80226e-18 -3.37464e-18
  outer loop
   vertex 0 -0.00303163 0.00332554
   vertex -1.97179e-21 -0.00333479 0.00365809
   vertex -1.97179e-21 -0.00298304 0.00395019
  endloop
 endfacet
 facet normal -1 2.80227e-18 -3.37464e-18
  outer loop
   vertex 0 -0.00303163 0.00332554
   vertex -1.97179e-21 -0.00298304 0.00395019
   vertex 0 -0.00271186 0.00359108
  endloop
 endfacet
 facet normal -1 2.47894e-18 -3.6188e-18
  outer loop
   vertex 0 -0.00271186 0.00359108
   vertex -1.97179e-21 -0.00298304 0.00395019
   vertex -1.97179e-21 -0.00260584 0.00420857
  endloop
 endfacet
 facet normal -1 2.47894e-18 -3.6188e-18
  outer loop
   vertex 0 -0.00271186 0.00359108
   vertex -1.97179e-21 -0.00260584 0.00420857
   vertex 0 -0.00236894 0.00382598
  endloop
 endfacet
 facet normal -1 2.13446e-18 -3.83209e-18
  outer loop
   vertex 0 -0.00236894 0.00382598
   vertex -1.97179e-21 -0.00260584 0.00420857
   vertex -1.97179e-21 -0.0022064 0.00443106
  endloop
 endfacet
 facet normal -1 2.13446e-18 -3.83209e-18
  outer loop
   vertex 0 -0.00236894 0.00382598
   vertex -1.97179e-21 -0.0022064 0.00443106
   vertex 0 -0.00200582 0.00402823
  endloop
 endfacet
 facet normal -1 1.77177e-18 -4.01269e-18
  outer loop
   vertex 0 -0.00200582 0.00402823
   vertex -1.97179e-21 -0.0022064 0.00443106
   vertex -1.97179e-21 -0.00178815 0.00461574
  endloop
 endfacet
 facet normal -1 1.77177e-18 -4.01269e-18
  outer loop
   vertex 0 -0.00200582 0.00402823
   vertex -1.97179e-21 -0.00178815 0.00461574
   vertex 0 -0.00162559 0.00419613
  endloop
 endfacet
 facet normal -1 1.39397e-18 -4.15905e-18
  outer loop
   vertex 0 -0.00162559 0.00419613
   vertex -1.97179e-21 -0.00178815 0.00461574
   vertex -1.97179e-21 -0.00135463 0.00476104
  endloop
 endfacet
 facet normal -1 1.39398e-18 -4.15905e-18
  outer loop
   vertex 0 -0.00162559 0.00419613
   vertex -1.97179e-21 -0.00135463 0.00476104
   vertex 0 -0.00123148 0.00432822
  endloop
 endfacet
 facet normal -1 1.00428e-18 -4.26993e-18
  outer loop
   vertex 0 -0.00123148 0.00432822
   vertex -1.97179e-21 -0.00135463 0.00476104
   vertex -1.97179e-21 -0.00090956 0.00486572
  endloop
 endfacet
 facet normal -1 1.00428e-18 -4.26993e-18
  outer loop
   vertex 0 -0.00123148 0.00432822
   vertex -1.97179e-21 -0.00090956 0.00486572
   vertex 0 -0.000826873 0.00442338
  endloop
 endfacet
 facet normal -1 6.06013e-19 -4.34438e-18
  outer loop
   vertex 0 -0.000826873 0.00442338
   vertex -1.97179e-21 -0.00090956 0.00486572
   vertex -1.97179e-21 -0.000456728 0.00492888
  endloop
 endfacet
 facet normal -1 6.06017e-19 -4.34438e-18
  outer loop
   vertex 0 -0.000826873 0.00442338
   vertex -1.97179e-21 -0.000456728 0.00492888
   vertex 0 -0.000415208 0.0044808
  endloop
 endfacet
 facet normal -1 2.02579e-19 -4.38176e-18
  outer loop
   vertex 0 -0.000415208 0.0044808
   vertex -1.97179e-21 -0.000456728 0.00492888
   vertex 0 0 0.0045
  endloop
 endfacet
 facet normal -1 2.02581e-19 -4.38176e-18
  outer loop
   vertex 0 0 0.0045
   vertex -1.97179e-21 -0.000456728 0.00492888
   vertex -1.97179e-21 0 0.00495
  endloop
 endfacet
endsolid DocumentfromArjun
